<?xml version="1.0" encoding="UTF-8"?>
<!DOCTYPE svg PUBLIC "-//W3C//DTD SVG 1.1//EN" "http://www.w3.org/Graphics/SVG/1.1/DTD/svg11.dtd">
<!-- Creator: CorelDRAW 2017 -->
<svg xmlns="http://www.w3.org/2000/svg" xml:space="preserve" width="6.0668in" height="2.92038in" version="1.1" style="shape-rendering:geometricPrecision; text-rendering:geometricPrecision; image-rendering:optimizeQuality; fill-rule:evenodd; clip-rule:evenodd"
viewBox="0 0 25945.83 12489.55"
 xmlns:xlink="http://www.w3.org/1999/xlink">
 <defs>
  <style type="text/css">
   <![CDATA[
    .str2 {stroke:#ED3237;stroke-width:114.04;stroke-miterlimit:2.61313}
    .str1 {stroke:#3E4095;stroke-width:114.04;stroke-miterlimit:2.61313}
    .str0 {stroke:#FEFEFE;stroke-width:228.08;stroke-miterlimit:2.61313}
    .fil0 {fill:none}
    .fil1 {fill:#FEFEFE}
    .fil3 {fill:#ED3237}
    .fil2 {fill:#3E4095}
   ]]>
  </style>
 </defs>
 <g id="Layer_x0020_1">
  <metadata id="CorelCorpID_0Corel-Layer"/>
  <polyline class="fil0 str0" points="359.95,359.95 25831.79,288.66 25831.79,9590.47 16957.66,9590.47 "/>
  <circle class="fil1 str0" cx="359.95" cy="359.95" r="245.91"/>
  <polyline class="fil0 str0" points="2288.97,3219.82 7624.73,3219.82 7624.73,12129.6 14200.11,12129.6 "/>
  <line class="fil0 str0" x1="7624.73" y1="6961.93" x2="14200.14" y2= "6961.93" />
  <circle class="fil1 str0" cx="2288.97" cy="3219.82" r="245.91"/>
  <circle class="fil1 str0" cx="14200.14" cy="6961.93" r="245.91"/>
  <circle class="fil1 str0" cx="14200.11" cy="12129.6" r="245.91"/>
  <circle class="fil1 str0" cx="16957.66" cy="9590.47" r="245.91"/>
  <polyline class="fil0 str1" points="359.95,359.95 25831.79,288.66 25831.79,9590.47 16957.66,9590.47 "/>
  <circle class="fil2 str1" cx="359.95" cy="359.95" r="245.91"/>
  <polyline class="fil0 str2" points="2288.97,3219.82 7624.73,3219.82 7624.73,12129.6 14200.11,12129.6 "/>
  <line class="fil0 str2" x1="7624.73" y1="6961.93" x2="14200.14" y2= "6961.93" />
  <circle class="fil3 str2" cx="2288.97" cy="3219.82" r="245.91"/>
  <circle class="fil3 str2" cx="14200.14" cy="6961.93" r="245.91"/>
  <circle class="fil3 str2" cx="14200.11" cy="12129.6" r="245.91"/>
  <circle class="fil2 str1" cx="16957.66" cy="9590.47" r="245.91"/>
 </g>
</svg>
